<svg xmlns="http://www.w3.org/2000/svg" xmlns:xlink="http://www.w3.org/1999/xlink" width="34" height="34" viewBox="0 0 34 34">
  <defs>
    <clipPath id="clip-path">
      <rect id="Rectangle_1394" data-name="Rectangle 1394" width="29.221" height="29.252" fill="#ae3030"/>
    </clipPath>
    <clipPath id="clip-ic_action-delete">
      <rect width="34" height="34"/>
    </clipPath>
  </defs>
  <g id="ic_action-delete" clip-path="url(#clip-ic_action-delete)">
    <g id="Group_2447" data-name="Group 2447" transform="translate(2 2)">
      <g id="Group_1733" data-name="Group 1733" clip-path="url(#clip-path)">
        <path id="Path_1201" data-name="Path 1201" d="M4.371,35.008c-.982,0-1.889.025-2.794-.006A1.468,1.468,0,0,1,.14,32.939a1.517,1.517,0,0,1,1.5-.884c1.072,0,2.145,0,3.217,0H27.169c1.327,0,2.052.524,2.052,1.479s-.728,1.476-2.054,1.477H24.85v.872q0,8.179,0,16.359a4.382,4.382,0,0,1-3.209,4.473,5.709,5.709,0,0,1-1.484.191q-5.544.023-11.088.006a4.446,4.446,0,0,1-4.694-4.737q-.008-8.145,0-16.291v-.875m8.76,9.482c0-1.186.01-2.373,0-3.559a1.392,1.392,0,0,0-1.449-1.537,1.432,1.432,0,0,0-1.448,1.556q-.014,3.525,0,7.05a1.436,1.436,0,0,0,1.433,1.571c.9.012,1.456-.576,1.465-1.59.011-1.163,0-2.327,0-3.491m5.861-.029c0-1.164.008-2.327,0-3.491A1.438,1.438,0,0,0,17.562,39.4a1.4,1.4,0,0,0-1.47,1.584q-.014,3.491,0,6.981c0,1.025.545,1.613,1.445,1.611a1.449,1.449,0,0,0,1.455-1.619c.007-1.164,0-2.327,0-3.491" transform="translate(0 -27.665)" fill="#ae3030"/>
        <path id="Path_1202" data-name="Path 1202" d="M79.128,2.963c-.912,0-1.824.014-2.736,0A1.488,1.488,0,0,1,74.752,1.5,1.47,1.47,0,0,1,76.361.014q2.77-.029,5.54,0A1.47,1.47,0,0,1,83.508,1.5,1.489,1.489,0,0,1,81.864,2.96c-.912.017-1.824,0-2.736,0" transform="translate(-64.519 0)" fill="#ae3030"/>
      </g>
    </g>
  </g>
</svg>
