<svg xmlns="http://www.w3.org/2000/svg" xmlns:xlink="http://www.w3.org/1999/xlink" width="34" height="34" viewBox="0 0 34 34">
  <defs>
    <clipPath id="clip-path">
      <rect id="Rectangle_1408" data-name="Rectangle 1408" width="29.253" height="29.252" fill="#339561"/>
    </clipPath>
    <clipPath id="clip-ic_action-edit">
      <rect width="34" height="34"/>
    </clipPath>
  </defs>
  <g id="ic_action-edit" clip-path="url(#clip-ic_action-edit)">
    <g id="Group_2449" data-name="Group 2449" transform="translate(2 2)">
      <g id="Group_1739" data-name="Group 1739" clip-path="url(#clip-path)">
        <path id="Path_1206" data-name="Path 1206" d="M24.557,47.333v.552q0,7.193,0,14.386a3.152,3.152,0,0,1-3.374,3.39H3.371A3.155,3.155,0,0,1,0,62.268q0-8.906,0-17.811a3.15,3.15,0,0,1,3.355-3.351h15.1c-.2.215-.318.361-.453.5-2.367,2.369-4.751,4.722-7.09,7.119a4.849,4.849,0,0,0-.965,1.571c-.415,1.037-.716,2.118-1.083,3.175a2.585,2.585,0,0,0,3.3,3.348c1.132-.379,2.282-.714,3.393-1.147a4.148,4.148,0,0,0,1.364-.886c2.376-2.333,4.721-4.7,7.073-7.056a6.023,6.023,0,0,0,.4-.487l.167.094" transform="translate(0 -36.41)" fill="#339561"/>
        <path id="Path_1207" data-name="Path 1207" d="M103.16,27.3l3.593,3.6c-.089.1-.2.239-.332.366q-5,5-10.014,10a2.984,2.984,0,0,1-1.042.638c-1.011.376-2.036.727-3.075,1.016a1.378,1.378,0,0,1-.985-.148c-.358-.221-.322-.632-.184-1.029.38-1.092.725-2.2,1.106-3.287a1.687,1.687,0,0,1,.381-.617q5.175-5.195,10.365-10.374c.065-.065.139-.121.187-.162" transform="translate(-80.626 -24.183)" fill="#339561"/>
        <path id="Path_1208" data-name="Path 1208" d="M208.99,1.712c.416-.4.871-.859,1.345-1.3A1.372,1.372,0,0,1,212.286.4c.583.544,1.148,1.109,1.69,1.693A1.362,1.362,0,0,1,213.984,4c-.342.381-.718.732-1.081,1.094-.106.106-.219.206-.274.256l-3.639-3.64" transform="translate(-185.117 -0.001)" fill="#339561"/>
      </g>
    </g>
  </g>
</svg>
